<mxfile host="app.diagrams.net" modified="2024-06-14T17:41:22.817Z" agent="Mozilla/5.0 (Windows NT 10.0; Win64; x64) AppleWebKit/537.36 (KHTML, like Gecko) Chrome/125.0.0.0 Safari/537.36" version="24.4.4" etag="PRXmFmYZfK4TvqQF-eOC" type="github">
  <diagram name="PÃ¡gina-1" id="d0yKV6HSegdCiuh0E5Je">
    <mxGraphModel>
      <root>
        <mxCell id="0" />
        <mxCell id="1" parent="0" />
      </root>
    </mxGraphModel>
  </diagram>
</mxfile>
